<svg width="164" height="160" viewBox="0 0 164 160" fill="none" xmlns="http://www.w3.org/2000/svg">
<path fill-rule="evenodd" clip-rule="evenodd" d="M45.0294 115.31C38.1031 131.163 26.9769 147.456 0.666992 160H163.474V0H55.1337C65.9677 25.8268 58.8563 83.663 45.0294 115.31ZM67.4095 125.043C66.1189 126.011 65.326 128.402 65.5627 130.02C65.806 131.641 67.0759 132.495 68.676 133.218C70.2762 133.941 72.3648 134.034 73.7405 133.044C75.1163 132.055 76.4536 129.874 76.1476 128.192C75.8445 126.503 73.8945 125.304 72.2755 124.673C70.663 124.044 68.7036 124.084 67.4095 125.043ZM61.4747 104.155C64.2822 104.354 68.0207 106.563 69.1873 109.083C70.3376 111.605 69.7024 114.904 68.0668 117.375C66.4248 119.857 63.7082 122.684 60.7582 122.57C57.8182 122.464 54.6285 119.419 53.4567 116.749C52.2848 114.079 53.1888 110.612 54.9786 108.196C56.7684 105.78 58.6609 103.966 61.4747 104.155Z" fill="#365B93"/>
</svg>
